<svg width="80" height="80" viewBox="0 0 80 80" fill="none" xmlns="http://www.w3.org/2000/svg">
<rect width="80" height="80" fill="white"/>
<g clip-path="url(#clip0_884_275)">
<path d="M42.9999 39.9939C44.6559 39.9939 45.9998 38.65 45.9998 36.994C45.9998 35.3381 44.6559 33.9941 42.9999 33.9941C41.3439 33.9941 40 35.3381 40 36.994C40 38.65 41.3439 39.9939 42.9999 39.9939Z" fill="#E94141"/>
<path d="M42.9999 45.9951C41.3439 45.9951 40 47.339 40 48.995C40 50.651 41.3439 51.9949 42.9999 51.9949C44.6559 51.9949 45.9998 50.651 45.9998 48.995C45.9998 47.339 44.6559 45.9951 42.9999 45.9951Z" fill="#E94141"/>
<path d="M42.9999 24.9941C33.0603 24.9941 25.0002 33.0542 25.0002 42.9938C25.0002 52.9334 33.0603 60.9935 42.9999 60.9935C52.9395 60.9935 60.9996 52.9334 60.9996 42.9938C60.9996 33.0542 52.9395 24.9941 42.9999 24.9941ZM42.9999 54.9937C36.3739 54.9937 31.0002 49.62 31.0002 42.994C31.0002 36.368 36.3739 30.9942 42.9999 30.9942C49.6259 30.9942 54.9997 36.368 54.9997 42.994C54.9997 49.62 49.6259 54.9937 42.9999 54.9937Z" fill="#E94141"/>
<path d="M47.1825 10.23V8.73028C47.1825 6.00136 44.8911 3.87036 42.1881 3.99973C21.5423 5.00828 5.01295 21.5386 4.00778 42.1809C3.86997 44.8793 6.00462 47.1747 8.73509 47.1747H10.2347C12.3034 63.4689 26.2157 75.9943 42.9813 75.9943C61.2164 75.9943 75.9988 61.2109 75.9988 42.9738C75.9988 26.208 63.4765 12.2974 47.1825 10.23ZM41.1815 10.0805V16.1152C40.4493 16.192 39.726 16.2979 39.0121 16.4288C30.4452 17.9986 23.2635 23.4 19.2944 30.8098C17.6119 33.9505 16.5065 37.4517 16.1168 41.1747H10.0886C11.5205 24.6525 24.6637 11.5109 41.1815 10.0805ZM42.9815 69.9943C29.5263 69.9943 18.3137 60.1337 16.292 47.1768H17.2869C19.0035 47.1768 20.5349 46.2575 21.3627 44.8614C21.729 44.2451 21.9585 43.5359 22.0045 42.7711C22.2647 38.5115 23.7108 34.5885 26.0183 31.3233C29.2111 26.8059 34.0535 23.5484 39.694 22.4061C40.6986 22.2029 41.7284 22.0668 42.7785 22.0025C43.4801 21.9603 44.1355 21.7639 44.7153 21.4483C44.7255 21.4428 44.7352 21.4368 44.7451 21.4312C44.799 21.4014 44.8526 21.3711 44.905 21.3392C44.9405 21.3177 44.9749 21.2946 45.0098 21.2723C45.0362 21.2552 45.0632 21.2389 45.0892 21.2215C45.1337 21.1917 45.1769 21.1603 45.2202 21.129C45.2358 21.1176 45.2521 21.107 45.2676 21.0955C45.312 21.0625 45.3552 21.028 45.3983 20.9935C45.412 20.9827 45.426 20.9725 45.4395 20.9613C45.4758 20.9317 45.5107 20.9007 45.546 20.8701C45.5655 20.8531 45.5858 20.8368 45.605 20.8195C45.6257 20.8009 45.6453 20.7815 45.6655 20.7625C46.6022 19.8913 47.1824 18.645 47.1824 17.2832V16.2869C60.1398 18.3064 69.9988 29.5175 69.9988 42.974C69.999 57.8973 57.9028 69.9943 42.9815 69.9943Z" fill="#E94141"/>
<path d="M37.0001 39.9941C35.3442 39.9941 34.0002 41.3381 34.0002 42.994C34.0002 44.65 35.3442 45.9939 37.0001 45.9939C38.6561 45.9939 40 44.65 40 42.994C40 41.3381 38.6561 39.9941 37.0001 39.9941Z" fill="#E94141"/>
<path d="M48.9999 39.9941C47.3439 39.9941 46 41.3381 46 42.994C46 44.65 47.3439 45.9939 48.9999 45.9939C50.6559 45.9939 51.9998 44.65 51.9998 42.994C51.9998 41.3381 50.6559 39.9941 48.9999 39.9941Z" fill="#E94141"/>
</g>
<defs>
<clipPath id="clip0_884_275">
<rect width="72" height="72" fill="white" transform="translate(4 4)"/>
</clipPath>
</defs>
</svg>
