<svg width="80" height="80" viewBox="0 0 80 80" fill="none" xmlns="http://www.w3.org/2000/svg">
<rect width="80" height="80" fill="white"/>
<circle cx="40" cy="40" r="32.5" stroke="#E94141" stroke-width="3"/>
<g clip-path="url(#clip0_887_334)">
<path d="M58.8334 34.7712C58.8334 36.4602 57.9052 37.9222 56.5417 38.7175L56.5417 37.0629C56.5417 35.7956 55.5151 34.7712 54.2501 34.7712L49.6667 34.7712L49.6667 32.4796C49.6667 31.2123 48.6401 30.188 47.3751 30.188L19.875 30.188C18.61 30.188 17.5834 31.2123 17.5834 32.4796L17.5834 34.7712L15.2916 34.7712C14.0266 34.7712 13 35.7956 13 37.0629C13 38.3301 14.0266 39.3545 15.2916 39.3545L17.5833 39.3545L17.5833 43.9379L15.2916 43.9379C14.0266 43.9379 13 44.9622 13 46.2295C13 47.4967 14.0266 48.5211 15.2916 48.5211L17.5833 48.5211L17.5833 50.8129C17.5833 52.0801 18.6099 53.1045 19.8749 53.1045L47.3749 53.1045C48.6399 53.1045 49.6665 52.0801 49.6665 50.8129L49.6665 48.5212L54.25 48.5212C55.515 48.5212 56.5416 47.4969 56.5416 46.2296L56.5416 43.6125C60.4833 42.5881 63.4166 39.0315 63.4166 34.7712C63.4166 33.5062 64.4456 32.4796 65.7082 32.4796C66.9732 32.4796 67.9999 31.4552 67.9999 30.188C67.9999 28.9207 66.9732 27.8963 65.7082 27.8963C61.9179 27.8962 58.8334 30.9807 58.8334 34.7712Z" fill="#E94141"/>
</g>
<defs>
<clipPath id="clip0_887_334">
<rect width="55" height="55" fill="white" transform="translate(13 68) rotate(-90)"/>
</clipPath>
</defs>
</svg>
