<svg width="80" height="80" viewBox="0 0 80 80" fill="none" xmlns="http://www.w3.org/2000/svg">
<rect width="80" height="80" fill="white"/>
<g clip-path="url(#clip0_884_282)">
<path d="M39.9998 4.00003C48.3318 3.99765 56.4068 6.88451 62.8488 12.1687C69.2908 17.4528 73.7012 24.8073 75.3284 32.9789C76.9556 41.1504 75.6989 49.6334 71.7724 56.9822C67.846 64.331 61.4928 70.091 53.7954 73.2805C46.0981 76.47 37.5329 76.8917 29.5595 74.4738C21.5861 72.0558 14.6978 66.9479 10.0684 60.0203C5.43907 53.0927 3.35513 44.7743 4.17171 36.4824C4.9883 28.1905 8.65488 20.4383 14.5466 14.5469C17.885 11.1984 21.8523 8.54275 26.2204 6.73274C30.5886 4.92273 35.2715 3.99402 39.9998 4.00003ZM42.3845 52.0996C43.031 52.5976 43.5054 53.2853 43.7412 54.0665C43.977 54.8477 43.9624 55.6831 43.6994 56.4555C43.4364 57.228 42.9383 57.8987 42.2748 58.3737C41.6113 58.8487 40.8158 59.1041 39.9998 59.1041C39.1838 59.1041 38.3883 58.8487 37.7248 58.3737C37.0613 57.8987 36.5631 57.228 36.3001 56.4555C36.0371 55.6831 36.0225 54.8477 36.2583 54.0665C36.4941 53.2853 36.9685 52.5976 37.615 52.0996V44.2071H28.7908V52.0996C29.4373 52.5976 29.9117 53.2853 30.1475 54.0665C30.3833 54.8477 30.3687 55.6831 30.1057 56.4555C29.8427 57.228 29.3445 57.8987 28.681 58.3737C28.0175 58.8487 27.222 59.1041 26.406 59.1041C25.59 59.1041 24.7945 58.8487 24.131 58.3737C23.4675 57.8987 22.9694 57.228 22.7064 56.4555C22.4434 55.6831 22.4288 54.8477 22.6646 54.0665C22.9004 53.2853 23.3748 52.5976 24.0213 52.0996V31.0528C23.3748 30.5549 22.9004 29.8671 22.6646 29.0859C22.4288 28.3047 22.4434 27.4693 22.7064 26.6969C22.9694 25.9244 23.4675 25.2537 24.131 24.7787C24.7945 24.3037 25.59 24.0483 26.406 24.0483C27.222 24.0483 28.0175 24.3037 28.681 24.7787C29.3445 25.2537 29.8427 25.9244 30.1057 26.6969C30.3687 27.4693 30.3833 28.3047 30.1475 29.0859C29.9117 29.8671 29.4373 30.5549 28.7908 31.0528V39.4375H37.615V31.0528C36.9685 30.5549 36.4941 29.8671 36.2583 29.0859C36.0225 28.3047 36.0371 27.4693 36.3001 26.6969C36.5631 25.9244 37.0613 25.2537 37.7248 24.7787C38.3883 24.3037 39.1838 24.0483 39.9998 24.0483C40.8158 24.0483 41.6113 24.3037 42.2748 24.7787C42.9383 25.2537 43.4364 25.9244 43.6994 26.6969C43.9624 27.4693 43.977 28.3047 43.7412 29.0859C43.5054 29.8671 43.031 30.5549 42.3845 31.0528V39.4375H51.2088V31.0528C50.5623 30.5549 50.0879 29.8671 49.8521 29.0859C49.6163 28.3047 49.6309 27.4693 49.8939 26.6969C50.1569 25.9244 50.655 25.2537 51.3185 24.7787C51.982 24.3037 52.7775 24.0483 53.5935 24.0483C54.4095 24.0483 55.205 24.3037 55.8685 24.7787C56.532 25.2537 57.0302 25.9244 57.2932 26.6969C57.5562 27.4693 57.5708 28.3047 57.335 29.0859C57.0992 29.8671 56.6248 30.5549 55.9783 31.0528V41.5C55.9843 41.6015 55.9843 41.7032 55.9783 41.8047C55.9783 42.4372 55.727 43.0438 55.2798 43.491C54.8326 43.9382 54.226 44.1895 53.5935 44.1895H42.3845V52.0996ZM61.7205 18.2559C56.6903 13.2297 50.0731 10.103 42.9961 9.4085C35.9192 8.71398 28.8204 10.4946 22.909 14.447C16.9977 18.3993 12.6395 24.279 10.577 31.0842C8.5145 37.8895 8.87523 45.1993 11.5978 51.7684C14.3203 58.3375 19.2362 63.7595 25.5079 67.1107C31.7797 70.4618 39.0193 71.5348 45.9935 70.1469C52.9677 68.759 59.2449 64.996 63.7558 59.4989C68.2667 54.0019 70.7321 47.111 70.7322 40C70.7407 35.9622 69.951 31.9624 68.4085 28.2308C66.866 24.4991 64.601 21.1092 61.7439 18.2559H61.7205Z" fill="#E94141"/>
</g>
<defs>
<clipPath id="clip0_884_282">
<rect width="72" height="72" fill="white" transform="translate(4 4)"/>
</clipPath>
</defs>
</svg>
