<svg width="80" height="80" viewBox="0 0 80 80" fill="none" xmlns="http://www.w3.org/2000/svg">
<rect width="80" height="80" fill="white"/>
<circle cx="40" cy="40" r="32.5" stroke="#E94141" stroke-width="3"/>
<g clip-path="url(#clip0_887_338)">
<path d="M33.4183 60.8901C33.2495 61.3493 32.8151 61.6337 32.353 61.6337C32.2229 61.6337 32.0907 61.6112 31.9615 61.5637C30.493 61.0239 29.0822 60.3213 27.7681 59.4754C27.241 59.1362 27.0888 58.4339 27.428 57.9068C27.7671 57.3796 28.4695 57.2275 28.9966 57.5667C30.171 58.3227 31.432 58.9507 32.7448 59.4333C33.333 59.6497 33.6346 60.3019 33.4183 60.8901ZM19.1723 45.0652C19.79 44.9584 20.2041 44.371 20.0972 43.7535C19.8586 42.3745 19.7718 40.9684 19.8394 39.5744C19.8698 38.9483 19.3868 38.4162 18.7608 38.3859C18.1338 38.3549 17.6027 38.8384 17.5723 39.4646C17.4966 41.0246 17.5936 42.5977 17.8605 44.1404C17.956 44.6926 18.4355 45.082 18.9774 45.082C19.0417 45.082 19.1069 45.0765 19.1723 45.0652ZM46.8953 25.6985C46.9948 25.7395 47.0936 25.7816 47.1915 25.8245C47.3398 25.8894 47.4942 25.9202 47.6462 25.9202C48.0833 25.9202 48.4998 25.6662 48.6864 25.2404C48.938 24.6662 48.6764 23.9969 48.1024 23.7454C47.9886 23.6956 47.8741 23.6467 47.7586 23.5993C47.1789 23.3608 46.5158 23.6375 46.2773 24.2173C46.039 24.7969 46.3156 25.46 46.8953 25.6985ZM47.2552 21.8471C48.5684 22.33 49.8293 22.958 51.0032 23.7135C51.1932 23.8359 51.4059 23.8944 51.6164 23.8944C51.9894 23.8944 52.3547 23.7106 52.5717 23.3737C52.9109 22.8466 52.7589 22.1444 52.2319 21.8051C50.9184 20.9595 49.5076 20.257 48.0387 19.7168C47.4503 19.5008 46.7982 19.802 46.5818 20.3903C46.3655 20.9784 46.667 21.6307 47.2552 21.8471ZM57.3609 37.8653C56.7397 37.9491 56.3042 38.5206 56.3879 39.1418C56.4023 39.2483 56.4149 39.355 56.4268 39.4614C56.4918 40.0414 56.9831 40.4701 57.5533 40.4701C57.5954 40.4701 57.6382 40.4677 57.6812 40.4629C58.304 40.3932 58.7524 39.8317 58.6825 39.2087C58.6688 39.0854 58.654 38.9619 58.6374 38.8385C58.5534 38.2172 57.9823 37.7825 57.3609 37.8653ZM22.4863 43.4256C22.5369 43.4256 22.5883 43.4222 22.6398 43.4152C23.261 43.3311 23.6963 42.7594 23.6122 42.1384C23.598 42.0327 23.5853 41.9269 23.5737 41.8215C23.5053 41.1985 22.9445 40.7485 22.3216 40.8174C21.6985 40.8859 21.249 41.4465 21.3174 42.0696C21.3311 42.1938 21.3461 42.3184 21.363 42.4428C21.4401 43.0123 21.927 43.4256 22.4863 43.4256ZM62.1396 37.1401C62.0328 36.5224 61.4456 36.1079 60.8279 36.2152C60.2102 36.322 59.7961 36.9094 59.9031 37.5269C60.1415 38.9051 60.2283 40.3111 60.1608 41.7061C60.1305 42.3322 60.6136 42.8642 61.2397 42.8945C61.2584 42.8954 61.2769 42.8958 61.2953 42.8958C61.8969 42.8958 62.3987 42.423 62.428 41.8156C62.5034 40.2549 62.4063 38.6818 62.1396 37.1401ZM61.8416 48.1628C62.1805 49.2999 62.0358 50.5397 61.4441 51.5644L60.9409 52.4359C60.3492 53.4607 59.3478 54.2062 58.1935 54.4811C57.099 54.7416 55.9934 54.556 55.0805 53.9584L44.4486 46.9989L45.1598 59.6859C45.2208 60.7756 44.8288 61.826 44.0558 62.6435C43.2406 63.5057 42.0944 64.0001 40.9111 64.0001H39.9048C38.7215 64.0001 37.5751 63.5057 36.76 62.6434C35.987 61.8259 35.5949 60.7756 35.656 59.686L36.367 46.9992L25.7356 53.9584C24.8223 54.5561 23.7164 54.7417 22.6221 54.4811C21.4679 54.2061 20.4665 53.4607 19.8748 52.436L19.3717 51.5645C18.7802 50.5398 18.6353 49.2999 18.9742 48.1628C19.2957 47.0847 20.0091 46.2199 20.9833 45.7278L32.326 40.0003L20.9834 34.2727C20.0093 33.7807 19.2958 32.9159 18.9744 31.8378C18.6353 30.7006 18.7802 29.4608 19.3717 28.436L19.875 27.5645C20.4665 26.5398 21.4679 25.7943 22.6222 25.5194C23.7164 25.2588 24.8224 25.4443 25.7356 26.0421L36.3671 33.0013L35.6561 20.3145C35.5951 19.2249 35.9872 18.1746 36.7602 17.3571C37.5753 16.4944 38.7216 16 39.905 16H40.9112C42.0944 16 43.2407 16.4944 44.0559 17.3566C44.8289 18.1741 45.221 19.2245 45.1599 20.3143L44.4487 33.0012L55.0806 26.0419C55.9936 25.4441 57.0991 25.2585 58.1936 25.5192C59.348 25.7941 60.3493 26.5396 60.9411 27.5644L61.4442 28.4359C62.0358 29.4606 62.1807 30.7005 61.8416 31.8377C61.52 32.9159 60.8066 33.7806 59.8324 34.2725L48.4897 40.0001L59.8324 45.7277C60.8067 46.2196 61.5202 47.0846 61.8416 48.1628ZM36.1922 44.4006C35.3543 43.6019 34.7636 42.5809 34.4899 41.4502L22.0064 47.7538C21.5951 47.9616 21.2907 48.337 21.1495 48.8111C20.9879 49.3528 21.0565 49.9427 21.3375 50.4294L21.8406 51.3008C22.1217 51.7876 22.5982 52.1418 23.1482 52.2728C23.6291 52.3873 24.107 52.3115 24.4926 52.0591L36.1922 44.4006ZM36.1922 35.5994L24.4925 27.9409C24.2242 27.7653 23.9113 27.6751 23.5837 27.6751C23.4405 27.6751 23.2944 27.6924 23.148 27.7272C22.5981 27.8582 22.1216 28.2124 21.8406 28.6992L21.3375 29.5706C21.0564 30.0574 20.9879 30.6472 21.1495 31.1889C21.2908 31.663 21.5952 32.0384 22.0064 32.2462L34.4897 38.5498C34.7636 37.4192 35.3544 36.3981 36.1922 35.5994ZM37.9223 20.1873L38.7049 34.1517C39.2015 34.0073 39.717 33.9265 40.2413 33.9124H40.2417C40.2448 33.9124 40.2477 33.9126 40.2514 33.9121C40.2533 33.9121 40.2553 33.912 40.2572 33.912C40.262 33.9119 40.267 33.9118 40.2722 33.9116C40.2744 33.9116 40.2771 33.9115 40.2796 33.9115C40.2823 33.9114 40.2843 33.9115 40.2867 33.9114C40.2888 33.9113 40.2912 33.9114 40.2935 33.9113C40.296 33.9113 40.2987 33.911 40.3013 33.9111C40.3034 33.9111 40.3058 33.9111 40.3081 33.911C40.3104 33.911 40.3134 33.911 40.3158 33.9109C40.3178 33.9108 40.3201 33.9109 40.3224 33.9109C40.3248 33.9109 40.3277 33.9108 40.3303 33.9108C40.3322 33.9108 40.3346 33.9108 40.3366 33.9108C40.339 33.9108 40.3419 33.9108 40.3446 33.9106C40.3466 33.9104 40.3485 33.9106 40.3509 33.9106C40.3535 33.9106 40.3562 33.9106 40.3587 33.9106C40.3622 33.9111 40.3632 33.9106 40.3652 33.9106C40.3674 33.9105 40.37 33.9106 40.3722 33.9106C40.3747 33.9108 40.3771 33.9106 40.3796 33.9106C40.382 33.9106 40.3844 33.9106 40.3863 33.9106C40.3889 33.9105 40.3913 33.9106 40.394 33.9106C40.3964 33.9106 40.3983 33.9106 40.4004 33.9106C40.4029 33.9108 40.4057 33.9106 40.4084 33.9106C40.411 33.9106 40.4135 33.9108 40.4163 33.9106C40.4184 33.9106 40.4208 33.9108 40.4227 33.9106C40.4254 33.9106 40.4278 33.9105 40.4303 33.9106C40.4323 33.9106 40.4346 33.9105 40.437 33.9106C40.4394 33.9106 40.4422 33.9108 40.4444 33.9106C40.4467 33.9105 40.449 33.9106 40.4514 33.9106C40.4563 33.9106 40.4609 33.9108 40.4656 33.9108C40.4678 33.9108 40.4709 33.9111 40.4719 33.9108C40.4744 33.9108 40.4772 33.9108 40.4799 33.9109C40.4821 33.9109 40.4833 33.9114 40.4862 33.9109C40.4887 33.9109 40.4913 33.9111 40.4939 33.911C40.4961 33.911 40.4983 33.911 40.5005 33.911C40.5031 33.911 40.5056 33.9111 40.5076 33.9111C40.5099 33.9111 40.5125 33.9111 40.5148 33.9113C40.5168 33.9113 40.5176 33.91 40.5213 33.9114C40.524 33.9114 40.5266 33.9114 40.5292 33.9115C40.5314 33.9116 40.5338 33.9119 40.5356 33.9116C40.5382 33.9116 40.5406 33.9116 40.5433 33.9118C40.5456 33.9118 40.5478 33.912 40.55 33.9119C40.5526 33.9119 40.5551 33.912 40.5574 33.912C40.5597 33.9121 40.5621 33.9123 40.5642 33.9121C40.5666 33.9121 40.5693 33.912 40.5717 33.9123C40.5741 33.9123 40.5766 33.9125 40.579 33.9124C40.5809 33.9124 40.5826 33.9124 40.585 33.9125C40.5878 33.9125 40.5908 33.9128 40.5935 33.9128C40.5955 33.9128 40.598 33.9129 40.6 33.9129C40.6028 33.9129 40.6053 33.9131 40.608 33.9131C40.6101 33.9133 40.6121 33.9133 40.6142 33.9134C40.6176 33.9135 40.6203 33.9135 40.6231 33.9137C40.6236 33.9137 40.6239 33.9137 40.6245 33.9137C41.1317 33.9314 41.6304 34.0116 42.1112 34.1515L42.894 20.187C42.9199 19.7268 42.7469 19.2753 42.407 18.9158C42.0183 18.5054 41.4733 18.2698 40.9112 18.2698H39.905C39.3428 18.2698 38.7978 18.5054 38.4094 18.9162C38.0695 19.2757 37.8964 19.727 37.9223 20.1873ZM42.8937 59.8128L42.1108 45.8484C41.6252 45.9896 41.1215 46.0701 40.6092 46.0867H40.6089C40.6038 46.0869 40.5994 46.086 40.5939 46.0872C40.592 46.0872 40.5898 46.0872 40.5881 46.0874C40.585 46.0874 40.5826 46.0876 40.5792 46.0876C40.5772 46.0877 40.5748 46.0877 40.5729 46.0877C40.5703 46.0879 40.5671 46.0879 40.5645 46.088C40.5623 46.088 40.5602 46.088 40.5582 46.0881C40.5555 46.0882 40.5526 46.0882 40.5501 46.0882C40.548 46.0884 40.5458 46.0882 40.5437 46.0884C40.541 46.0884 40.5382 46.0884 40.5356 46.0885C40.5337 46.0885 40.5312 46.0885 40.5293 46.0886C40.527 46.0887 40.5246 46.0886 40.5221 46.0887C40.5198 46.0887 40.5173 46.0889 40.5148 46.0889C40.5124 46.0889 40.51 46.0889 40.5079 46.089C40.5052 46.0887 40.5031 46.089 40.5004 46.0891C40.4981 46.0891 40.496 46.0891 40.4939 46.0891C40.4913 46.0891 40.4886 46.0891 40.486 46.0892C40.484 46.0894 40.4817 46.0892 40.4797 46.0892C40.4775 46.0892 40.4744 46.0892 40.4718 46.0894C40.4694 46.0894 40.4678 46.0894 40.4655 46.0894C40.4631 46.0894 40.4602 46.0894 40.4577 46.0894C40.4561 46.0901 40.4532 46.0894 40.4511 46.0894C40.4486 46.0895 40.4462 46.0894 40.4442 46.0894C40.4419 46.0894 40.4393 46.0894 40.4367 46.0894C40.4346 46.0894 40.4321 46.0894 40.43 46.0894C40.4271 46.0898 40.425 46.0895 40.4224 46.0894C40.4203 46.0894 40.4181 46.0894 40.4159 46.0894C40.4131 46.0894 40.4106 46.0894 40.408 46.0894C40.4053 46.0894 40.4026 46.0894 40.4 46.0894C40.3979 46.0894 40.3959 46.0894 40.3936 46.0894C40.391 46.0894 40.3888 46.0892 40.3859 46.0894C40.3839 46.0894 40.3814 46.0891 40.3792 46.0894C40.3767 46.0894 40.3739 46.0891 40.3718 46.0894C40.3698 46.0894 40.3674 46.0896 40.3649 46.0894C40.3628 46.0894 40.3638 46.09 40.3583 46.0894C40.3558 46.0892 40.3529 46.0894 40.3505 46.0894C40.3483 46.0892 40.3462 46.0892 40.3442 46.0894C40.3415 46.0892 40.3388 46.0891 40.3361 46.0892C40.3341 46.0892 40.3319 46.0892 40.3299 46.0892C40.3273 46.0892 40.3248 46.0891 40.322 46.0891C40.3198 46.0891 40.3174 46.089 40.3154 46.0891C40.3129 46.089 40.31 46.089 40.3076 46.089C40.3053 46.089 40.3032 46.0889 40.3009 46.0889C40.2983 46.0889 40.2959 46.0889 40.293 46.0887C40.2905 46.0887 40.2886 46.0886 40.2863 46.0886C40.2836 46.0885 40.281 46.0885 40.2785 46.0885C40.2761 46.0885 40.2739 46.0884 40.2717 46.0884C40.2666 46.0881 40.2617 46.0881 40.2568 46.088C40.2549 46.088 40.2531 46.0879 40.2511 46.0879C40.2476 46.0874 40.2447 46.0877 40.2414 46.0876H40.241C39.7168 46.0735 39.2012 45.9927 38.7046 45.8483L37.922 59.8127C37.8962 60.2729 38.0692 60.7243 38.4092 61.0838C38.7976 61.4946 39.3427 61.7302 39.9047 61.7302H40.911C41.473 61.7302 42.018 61.4946 42.4063 61.0839C42.7464 60.7245 42.9194 60.2731 42.8937 59.8128ZM44.2281 39.9952C44.2279 39.9197 44.2253 39.8404 44.2201 39.7595C44.2195 39.7497 44.219 39.7401 44.2186 39.7304C44.0812 37.7675 42.4541 36.2088 40.4636 36.1803C40.4583 36.1809 40.4555 36.1803 40.4514 36.1802C40.4492 36.1803 40.4476 36.1802 40.4456 36.1802C40.4419 36.18 40.4375 36.1802 40.4333 36.18C40.4312 36.18 40.4293 36.18 40.4273 36.18C40.4255 36.1799 40.423 36.18 40.4208 36.18C40.4188 36.18 40.4172 36.18 40.4152 36.18C40.4132 36.1799 40.4104 36.18 40.4081 36.18C40.4058 36.18 40.4033 36.18 40.401 36.18C40.399 36.18 40.3971 36.1802 40.3954 36.18C40.3934 36.18 40.3912 36.18 40.3889 36.18C40.387 36.18 40.3848 36.18 40.3829 36.18C40.3788 36.1802 40.3751 36.1812 40.3708 36.1802C40.3688 36.1802 40.3665 36.1798 40.3649 36.1802C38.3683 36.2024 36.7347 37.7636 36.5969 39.7305C36.5966 39.7385 36.5962 39.7463 36.5957 39.7542C36.5903 39.8479 36.5877 39.9247 36.5875 39.9955C36.5875 39.997 36.5875 39.9985 36.5875 40C36.5875 40.0015 36.5875 40.003 36.5875 40.0045C36.5877 40.0754 36.5903 40.1522 36.5957 40.2459C36.5962 40.2538 36.5966 40.2617 36.5969 40.2696C36.7347 42.2366 38.3683 43.7978 40.3649 43.8201C40.3654 43.8206 40.3686 43.8201 40.3708 43.8201C40.3742 43.8189 40.3787 43.8201 40.3829 43.8202C40.3849 43.8202 40.387 43.8202 40.3889 43.8202C40.3913 43.8205 40.3934 43.8202 40.3954 43.8202C40.3973 43.8202 40.3992 43.8202 40.401 43.8202C40.4015 43.8202 40.4021 43.8202 40.4026 43.8202C40.4062 43.8202 40.41 43.8202 40.4135 43.8202C40.4159 43.8202 40.4174 43.8202 40.4195 43.8202C40.4217 43.8203 40.4241 43.8202 40.4264 43.8202C40.4284 43.8205 40.4302 43.8202 40.4319 43.8202C40.4369 43.8203 40.4406 43.8202 40.4448 43.8201C40.4467 43.8201 40.449 43.8201 40.451 43.8201H40.4514C42.4475 43.7979 44.0808 42.2366 44.2186 40.2696C44.219 40.26 44.2195 40.2503 44.2201 40.2407C44.2253 40.1599 44.2279 40.0806 44.2281 40.0049C44.2281 40.0034 44.2281 40.0018 44.2281 40.0001C44.2281 39.9985 44.2281 39.9967 44.2281 39.9952ZM44.6236 35.5995C45.4614 36.3982 46.052 37.4191 46.3257 38.55L58.8093 32.2462C59.2206 32.0385 59.525 31.663 59.6664 31.1889C59.8279 30.6472 59.7594 30.0573 59.4783 29.5706L58.9752 28.6992C58.6941 28.2124 58.2176 27.8582 57.6677 27.7272C57.1865 27.6128 56.7093 27.6885 56.3236 27.9408L44.6236 35.5995ZM59.6665 48.8112C59.5251 48.3371 59.2206 47.9615 58.8091 47.7536L46.3256 41.45C46.052 42.5809 45.4614 43.6017 44.6236 44.4005L56.3237 52.0591C56.7092 52.3114 57.1864 52.3874 57.6678 52.2728C58.2177 52.1418 58.6943 51.7876 58.9753 51.3008L59.4785 50.4294C59.7594 49.9427 59.828 49.353 59.6665 48.8112ZM33.1045 55.5821C33.0051 55.5412 32.9068 55.4991 32.8089 55.4562C32.2351 55.2045 31.5656 55.4657 31.3138 56.0397C31.0619 56.6137 31.3232 57.2832 31.8972 57.5349C32.0111 57.5848 32.1257 57.6337 32.2414 57.6812C32.3826 57.7393 32.5287 57.7669 32.6725 57.7669C33.1189 57.7669 33.5422 57.5017 33.7225 57.0632C33.9609 56.4836 33.6843 55.8204 33.1045 55.5821Z" fill="#E94141"/>
</g>
<defs>
<clipPath id="clip0_887_338">
<rect width="48" height="48" fill="white" transform="translate(16 16)"/>
</clipPath>
</defs>
</svg>
