<svg width="80" height="80" viewBox="0 0 80 80" fill="none" xmlns="http://www.w3.org/2000/svg">
<rect width="80" height="80" fill="white"/>
<g clip-path="url(#clip0_886_306)">
<path d="M32.6822 18.9678L28.6127 24.6659V26.3873H39.7417V18.9678H32.6822ZM38.258 24.9034H30.2666L33.4466 20.4518H38.258V24.9034Z" fill="#E94141"/>
<path d="M40.4835 18.9678V26.3871H51.6126V24.6659L47.5431 18.9679L40.4835 18.9678ZM41.9676 24.903V20.4515H46.779L49.959 24.903H41.9676Z" fill="#E94141"/>
<path d="M39.7418 27.1289H37.516V28.6128H39.7418V27.1289Z" fill="#E94141"/>
<path d="M26.3872 38.9995C27.6143 38.9995 28.6131 38.0008 28.6131 36.7737C28.6131 35.5466 27.6143 34.5479 26.3872 34.5479C25.1601 34.5479 24.1614 35.5466 24.1614 36.7737C24.1614 38.001 25.1601 38.9995 26.3872 38.9995ZM26.3872 36.0316C26.7968 36.0316 27.1292 36.3639 27.1292 36.7735C27.1292 37.1832 26.7967 37.5155 26.3872 37.5155C25.9776 37.5155 25.6453 37.1832 25.6453 36.7735C25.6453 36.3639 25.9776 36.0316 26.3872 36.0316Z" fill="#E94141"/>
<path d="M59.7742 37.5159C61.6134 37.5159 62 36.3051 62 35.29V28.6128C62 26.7735 60.4997 25.1429 59.2118 24.9253L56.2464 24.1834C55.5001 23.9942 55.0682 23.7026 54.442 22.9882L50.7137 17.7687C49.7565 16.5453 48.6607 16 47.1612 16H33.0645C31.5642 16 30.4677 16.5453 29.4936 17.7947L25.8276 22.9324C25.1614 23.6996 24.6532 24.0483 24.0404 24.1714L19.5591 24.9185C17.4305 25.3618 16 27.1445 16 29.3546V34.5481C16 36.1566 17.3593 37.5159 18.9678 37.5159H21.253C21.4192 38.6704 21.963 39.7039 22.7598 40.4837H16V46.4191H29.2427L36.4766 48.6449L29.1366 50.9033L29.1619 52.3293L36.1457 54.2094L29.2561 56.0643H16V61.9997H61.9998V56.0643H48.7437L41.8541 54.2094L48.838 52.3293L48.8632 50.9033L41.5232 48.6449L48.7571 46.4191H61.9998V40.4837H55.24C56.0376 39.7039 56.5807 38.6704 56.747 37.5159H59.7742ZM22.6774 36.7741C22.6774 34.7285 24.3415 33.0643 26.3871 33.0643C28.4327 33.0643 30.0969 34.7285 30.0969 36.7741C30.0969 38.8197 28.4327 40.4838 26.3871 40.4838C24.3415 40.4838 22.6774 38.8195 22.6774 36.7741ZM31.5212 37.5159H46.4786C46.6449 38.6704 47.1886 39.7039 47.9854 40.4837H30.0144C30.812 39.704 31.355 38.6705 31.5212 37.5159ZM60.5159 57.548V60.5158H17.4839V57.548H60.5159ZM43.0353 56.0643H34.9645L38.9999 54.9781L43.0353 56.0643ZM45.9682 51.5652L38.9999 53.4408L32.0317 51.5644L38.9999 49.421L45.9682 51.5652ZM38.9999 47.8681L34.2894 46.4191H43.7106L38.9999 47.8681ZM60.5159 41.9676V44.9353H17.4839V41.9676H60.5159ZM51.6129 40.4838C49.5673 40.4838 47.9031 38.8197 47.9031 36.7741C47.9031 34.7285 49.5673 33.0643 51.6129 33.0643C53.6585 33.0643 55.3226 34.7285 55.3226 36.7741C55.3226 38.8195 53.6585 40.4838 51.6129 40.4838ZM51.6127 31.5806C49.0017 31.5806 46.8405 33.5201 46.4786 36.0321H31.5212C31.1591 33.5201 28.998 31.5806 26.3871 31.5806C23.7763 31.5806 21.6149 33.5201 21.253 36.0321H18.9678C18.1775 36.0321 17.4839 35.3385 17.4839 34.5484V30.8386H18.9678V32.3225H20.4517V30.8386C20.4517 29.8815 19.9249 29.3548 18.9678 29.3548H17.4839C17.4839 27.5192 18.7118 26.6104 19.8314 26.3767L24.3068 25.6304C25.2758 25.4359 26.0644 24.9204 26.9904 23.8504L30.6814 18.6822C31.364 17.8089 32.0103 17.4841 33.0645 17.4841H47.1612C48.2148 17.4841 48.861 17.8091 49.5257 18.6571L53.2791 23.9062C54.0062 24.7431 54.6961 25.3219 55.8855 25.6223L58.9082 26.3761C59.5403 26.4851 60.5159 27.4933 60.5159 28.613V35.2903C60.5159 35.9276 60.4114 36.0323 59.774 36.0323H56.7468C56.3849 33.5201 54.2237 31.5806 51.6127 31.5806Z" fill="#E94141"/>
<path d="M51.6127 34.5479C50.3856 34.5479 49.3868 35.5466 49.3868 36.7737C49.3868 38.0008 50.3856 38.9995 51.6127 38.9995C52.8398 38.9995 53.8385 38.0008 53.8385 36.7737C53.8385 35.5466 52.84 34.5479 51.6127 34.5479ZM51.6127 37.5155C51.2031 37.5155 50.8707 37.1832 50.8707 36.7735C50.8707 36.3639 51.2031 36.0316 51.6127 36.0316C52.0223 36.0316 52.3546 36.3639 52.3546 36.7735C52.3546 37.1832 52.0223 37.5155 51.6127 37.5155Z" fill="#E94141"/>
<path d="M23.4192 47.9033H21.9353V51.6131H23.4192V47.9033Z" fill="#E94141"/>
<path d="M20.4517 49.3867H18.9678V54.5802H20.4517V49.3867Z" fill="#E94141"/>
<path d="M58.2903 47.9033H56.8064V50.8711H58.2903V47.9033Z" fill="#E94141"/>
<path d="M55.3225 47.9033H53.8386V54.5807H55.3225V47.9033Z" fill="#E94141"/>
<path d="M44.9354 33.0645H43.4515V34.5483H44.9354V33.0645Z" fill="#E94141"/>
<path d="M41.9677 33.0645H40.4838V34.5483H41.9677V33.0645Z" fill="#E94141"/>
<path d="M59.0321 33.0645H57.5482V34.5483H59.0321V33.0645Z" fill="#E94141"/>
<path d="M20.4517 58.2891H18.9678V59.773H20.4517V58.2891Z" fill="#E94141"/>
<path d="M23.4192 58.2891H21.9353V59.773H23.4192V58.2891Z" fill="#E94141"/>
</g>
<circle cx="39.5" cy="40.5" r="34" stroke="#E94141" stroke-width="3"/>
<defs>
<clipPath id="clip0_886_306">
<rect width="46" height="46" fill="white" transform="translate(16 16)"/>
</clipPath>
</defs>
</svg>
