<svg width="80" height="80" viewBox="0 0 80 80" fill="none" xmlns="http://www.w3.org/2000/svg">
<rect width="80" height="80" fill="white"/>
<circle cx="40" cy="40" r="32.5" stroke="#E94141" stroke-width="3"/>
<g clip-path="url(#clip0_887_348)">
<path d="M46.2755 43.936H47.6058V39.9452H50.9316V33.2938H45.6103V19.9908H43.6149V16H38.2939V19.9908H36.2984V33.2937H30.9773V39.9451H34.3031V43.936H35.6334V53.2481H38.9592V55.2435H42.285V53.2481H42.9501V53.9099C42.9461 54.2439 42.8324 55.9087 40.9546 55.9087H38.9592V57.239H40.9546C43.5852 57.239 44.2804 55.0634 44.2804 53.9132V53.2481H46.2755V43.936ZM45.6103 34.6241H49.6011V38.6149H45.6103V34.6241ZM39.6241 17.3303H42.2847V19.9909H39.6241V17.3303ZM37.6287 31.9635H38.959V30.6332H37.6287V29.3029H38.959V27.9725H37.6287V26.6422H38.959V25.3119H37.6287V23.9816H38.959V22.6513H37.6287V21.321H44.2801V22.6513H42.9498V23.9816H44.2801V25.3119H42.9498V26.6422H44.2801V27.9725H42.9498V29.3029H44.2801V30.6332H42.9498V31.9635H44.2801V33.2938H37.6287V31.9635ZM44.2801 34.624V38.6148H37.6287V34.624H44.2801ZM32.3075 38.6148V34.624H36.2983V38.6148H32.3075ZM35.6333 42.6058V39.9452H46.2755V42.6058H35.6333ZM36.9636 51.9176V50.8042L40.862 51.9176H36.9636ZM40.9544 53.9132H40.2892V53.2481H40.9544V53.9132ZM44.9453 51.7017L36.9636 49.4208V48.1437L44.9453 50.4246V51.7017ZM44.9453 49.0404L36.9636 46.7595V45.4824L44.9453 47.7633V49.0404ZM44.9453 46.3797L36.9636 44.0989V43.936H44.9453V46.3797Z" fill="#E94141"/>
<path d="M41.6196 30.6328H40.2893V31.9631H41.6196V30.6328Z" fill="#E94141"/>
<path d="M41.6196 27.9727H40.2893V29.303H41.6196V27.9727Z" fill="#E94141"/>
<path d="M62.2391 55.9082H58.9133V57.2385H62.2391V55.9082Z" fill="#E94141"/>
<path d="M59.8003 50.091L53.1483 56.0781L54.0383 57.0669L60.6903 51.0799L59.8003 50.091Z" fill="#E94141"/>
<path d="M55.0728 44.8438L45.7612 56.1504L46.7876 56.9956L56.0991 45.6891L55.0728 44.8438Z" fill="#E94141"/>
<path d="M31.6422 16H30.3119V26.6422H31.6422V16Z" fill="#E94141"/>
<path d="M28.9817 21.3203H27.6514V26.6414H28.9817V21.3203Z" fill="#E94141"/>
<path d="M28.9817 27.9727H27.6514V29.303H28.9817V27.9727Z" fill="#E94141"/>
<path d="M24.3258 55.9082H21V57.2385H24.3258V55.9082Z" fill="#E94141"/>
<path d="M22.5506 51.0813L29.2026 57.0684L30.0926 56.0795L23.4406 50.0925L22.5506 51.0813Z" fill="#E94141"/>
<path d="M27.1382 45.6895L36.4497 56.9961L37.476 56.1509L28.1645 44.8443L27.1382 45.6895Z" fill="#E94141"/>
</g>
<defs>
<clipPath id="clip0_887_348">
<rect width="41.239" height="41.239" fill="white" transform="translate(21 16)"/>
</clipPath>
</defs>
</svg>
