<svg width="80" height="80" viewBox="0 0 80 80" fill="none" xmlns="http://www.w3.org/2000/svg">
<rect width="80" height="80" fill="white"/>
<g clip-path="url(#clip0_887_321)">
<path fill-rule="evenodd" clip-rule="evenodd" d="M27.9801 26.4884C25.4484 26.4884 24.1418 28.6789 23.3664 31.0943L21.4279 37.2317L20.4702 35.4366C16.1745 35.1846 15.6859 37.5961 19.943 39.7518C15.2013 42.8302 15.8565 48.1999 16.3218 54.1628C16.3178 54.2364 16.3178 54.3102 16.3218 54.3838V57.7026C16.3228 58.0807 16.4726 58.4433 16.7389 58.7118C17.0052 58.9802 17.3665 59.133 17.7447 59.1371H23.8821C24.2602 59.133 24.6215 58.9802 24.8878 58.7118C25.1541 58.4433 25.3039 58.0807 25.3049 57.7026V56.5395H54.3286V57.7026C54.3297 58.0834 54.4817 58.4483 54.7513 58.7172C55.0209 58.9861 55.3862 59.1371 55.767 59.1371H61.9044C62.2852 59.1371 62.6505 58.9861 62.9201 58.7172C63.1898 58.4483 63.3418 58.0834 63.3428 57.7026V55.1515C63.8236 47.3974 64.1182 44.2453 61.0476 41.101L60.2722 39.9379C64.9246 37.7318 64.5369 35.1769 60.1365 35.4327L59.3029 37.0379L57.8219 31.0866C57.2093 28.6324 55.7515 26.4845 53.2198 26.4845H41.3909C41.3909 26.3449 41.3637 26.1937 41.3443 26.0231C44.0583 25.5928 44.9927 24.1699 44.9927 21.3706V19.7035H45.5316C45.7133 19.7025 45.8872 19.6299 46.0157 19.5014C46.1442 19.3729 46.2168 19.199 46.2178 19.0173V18.2341C46.2168 18.0524 46.1442 17.8785 46.0157 17.75C45.8872 17.6215 45.7133 17.5489 45.5316 17.5479H43.438V14.0856C43.438 13.7997 43.3252 13.5254 43.1241 13.3221C42.923 13.1188 42.6499 13.0031 42.364 13.0001C42.0764 13.0011 41.8009 13.1158 41.5975 13.3191C41.3942 13.5225 41.2795 13.798 41.2784 14.0856V17.5479H38.0992V14.0856C38.0987 13.9419 38.0698 13.7997 38.0141 13.6672C37.9584 13.5347 37.877 13.4146 37.7747 13.3136C37.6723 13.2127 37.551 13.1331 37.4178 13.0793C37.2845 13.0254 37.1419 12.9985 36.9982 13.0001C36.7106 13.0011 36.435 13.1158 36.2317 13.3191C36.0283 13.5225 35.9136 13.798 35.9126 14.0856V17.5479H33.8771C33.6954 17.5489 33.5215 17.6215 33.393 17.75C33.2645 17.8785 33.1919 18.0524 33.1909 18.2341V19.0328C33.1919 19.2145 33.2645 19.3884 33.393 19.5169C33.5215 19.6454 33.6954 19.718 33.8771 19.719H34.3036V21.2233C34.3036 24.0458 35.3814 25.7711 38.3164 26.0541C38.3164 26.2131 38.3513 26.3565 38.3629 26.4884H27.9801ZM42.5385 20.3316H36.7578V21.1923H42.5385V20.3316ZM41.2435 45.6255H43.1821C43.272 45.6266 43.3599 45.6517 43.4369 45.6982C43.5138 45.7447 43.5769 45.8109 43.6196 45.89C43.6623 45.9691 43.6831 46.0582 43.6798 46.1481C43.6765 46.2379 43.6492 46.3252 43.6008 46.401L39.0259 54.2016C38.9923 54.2587 38.9478 54.3086 38.8948 54.3483C38.8418 54.388 38.7815 54.4168 38.7173 54.4331C38.6531 54.4493 38.5863 54.4526 38.5208 54.4428C38.4553 54.4331 38.3924 54.4104 38.3357 54.3761C38.2475 54.3208 38.178 54.2401 38.1365 54.1446C38.095 54.0491 38.0833 53.9433 38.1031 53.841L38.7583 49.0567L36.4864 49.0955C36.4202 49.0965 36.3545 49.0845 36.2929 49.0601C36.2314 49.0357 36.1752 48.9995 36.1277 48.9534C36.0802 48.9073 36.0422 48.8523 36.0159 48.7916C35.9897 48.7308 35.9756 48.6654 35.9746 48.5993C35.9738 48.5067 35.9979 48.4156 36.0444 48.3356L40.5418 40.5466C40.6018 40.448 40.6938 40.373 40.8025 40.3342C40.9112 40.2953 41.0299 40.2949 41.1388 40.333C41.2477 40.3711 41.3403 40.4455 41.401 40.5436C41.4617 40.6418 41.4868 40.7578 41.4723 40.8723L41.2435 45.6255ZM26.123 30.6019C26.2906 30.2635 26.5269 29.9637 26.817 29.7218C27.0799 29.4595 27.3918 29.2515 27.7351 29.1098C28.0784 28.9682 28.4462 28.8955 28.8176 28.896H52.1226C54.0611 28.896 55.2242 30.5205 55.6119 32.3854L57.1162 38.5887H23.4556L25.3049 32.4125C25.4924 31.781 25.7526 31.1734 26.0804 30.6019H26.123ZM27.7979 46.8236L22.3274 46.1373C21.0402 45.9939 20.6951 46.525 21.1332 47.6455L21.7225 49.0761C21.888 49.4125 22.1429 49.6969 22.4592 49.8981C22.8309 50.1132 23.2511 50.2306 23.6804 50.2393L28.5423 50.2741C29.7054 50.2741 30.2249 49.805 29.8566 48.7233C29.7252 48.2426 29.4602 47.809 29.0924 47.4728C28.7246 47.1366 28.269 46.9114 27.7785 46.8236H27.7979ZM51.8822 46.8236L57.3334 46.1373C58.6205 45.9939 58.9656 46.525 58.5275 47.6455L57.9382 49.0761C57.7727 49.4125 57.5178 49.6969 57.2015 49.8981C56.8298 50.1132 56.4096 50.2306 55.9803 50.2393L51.1184 50.2741C49.9553 50.2741 49.4358 49.805 49.8041 48.7233C49.9355 48.2426 50.2005 47.809 50.5683 47.4728C50.9361 47.1366 51.3917 46.9114 51.8822 46.8236Z" fill="#E94141"/>
</g>
<circle cx="40" cy="40" r="32.5" stroke="#E94141" stroke-width="3"/>
<defs>
<clipPath id="clip0_887_321">
<rect width="47.6413" height="46.137" fill="white" transform="translate(16 13)"/>
</clipPath>
</defs>
</svg>
