<svg width="27" height="27" viewBox="0 0 27 27" fill="none" xmlns="http://www.w3.org/2000/svg">
<path d="M26.0073 20.5303C25.9452 20.1467 25.7047 19.8188 25.3444 19.624L20.0155 16.4842L19.9716 16.4597C19.7564 16.3493 19.5073 16.2924 19.2516 16.2924C18.8051 16.2924 18.3787 16.4616 18.0828 16.7582L16.51 18.3318C16.4427 18.3957 16.2233 18.4883 16.1568 18.4917C16.1386 18.4902 14.3267 18.3597 10.991 15.0237C7.66133 11.6947 7.52007 9.87724 7.51895 9.87724C7.52081 9.7843 7.61226 9.56571 7.67732 9.49806L9.01857 8.15718C9.49105 7.68357 9.63269 6.89845 9.3524 6.29028L6.39034 0.716722C6.1751 0.273603 5.75689 0 5.29295 0C4.9647 0 4.64798 0.136058 4.40039 0.383268L0.744294 4.03119C0.393739 4.37989 0.0918826 4.98955 0.0260839 5.48025C-0.00588605 5.71482 -0.654579 11.314 7.02193 18.9917C13.539 25.5079 18.6207 26.0143 20.024 26.0143C20.3259 26.0143 20.5017 25.9927 20.5356 25.9879C21.0248 25.9224 21.6337 25.6213 21.982 25.2723L25.6351 21.6195C25.9333 21.3199 26.0693 20.924 26.0073 20.5303Z" fill="#E9162F"/>
</svg>
