<svg width="32" height="25" viewBox="0 0 32 25" fill="none" xmlns="http://www.w3.org/2000/svg">
<path d="M30.2137 0H1.03737C0.465113 0 0 0.465519 0 1.03778V3.12551C0 3.2217 0.104305 3.33209 0.189536 3.37674L15.5253 12.1364C15.5651 12.1595 15.6097 12.1701 15.6543 12.1701C15.6998 12.1701 15.7457 12.1583 15.7858 12.1343L30.6581 3.38526C30.7417 3.33859 30.9633 3.21521 31.0465 3.15839C31.1472 3.0898 31.2511 3.0277 31.2511 2.90473V1.03737C31.2511 0.46552 30.7859 0 30.2137 0Z" fill="#E9162F"/>
<path d="M31.1214 6.27362C31.0402 6.22654 30.9412 6.22857 30.8596 6.27524L22.4433 11.2271C22.376 11.2661 22.3293 11.3351 22.3179 11.413C22.3078 11.4905 22.3321 11.5697 22.3845 11.6269L30.802 20.7006C30.8519 20.7546 30.9201 20.7834 30.9915 20.7834C31.0236 20.7834 31.0561 20.7774 31.0865 20.766C31.1859 20.7266 31.2509 20.6312 31.2509 20.5241V6.49887C31.2509 6.40552 31.2018 6.31988 31.1214 6.27362Z" fill="#E9162F"/>
<path d="M20.0182 12.8892C19.9354 12.7995 19.8022 12.7796 19.6971 12.8413L16.3236 14.8264C15.9275 15.0593 15.4202 15.0614 15.0216 14.8349L12.0528 13.1388C11.9546 13.0832 11.8308 13.0966 11.748 13.1737L0.474077 23.631C0.41401 23.6871 0.383977 23.7678 0.392906 23.8494C0.401835 23.931 0.44932 24.004 0.520345 24.045C0.695675 24.1481 0.864918 24.1972 1.037 24.1972H29.915C30.0185 24.1972 30.1118 24.1359 30.1524 24.041C30.1938 23.9468 30.1752 23.8368 30.1045 23.7613L20.0182 12.8892Z" fill="#E9162F"/>
<path d="M9.26736 11.9368C9.32824 11.8812 9.35868 11.7992 9.34975 11.7176C9.34082 11.6356 9.29212 11.563 9.22069 11.5216L0.386783 6.47597C0.308046 6.43052 0.208611 6.43133 0.128251 6.4776C0.0487029 6.52387 0 6.6095 0 6.70163V19.9407C0 20.0434 0.0608787 20.1367 0.155038 20.1777C0.188318 20.1927 0.223628 20.2001 0.259343 20.2001C0.323063 20.2001 0.386782 20.1761 0.435485 20.1307L9.26736 11.9368Z" fill="#E9162F"/>
</svg>
