<svg width="14" height="25" viewBox="0 0 14 25" fill="none" xmlns="http://www.w3.org/2000/svg">
<path d="M7.82031 12.8115C7.91146 12.9027 7.95703 13.0075 7.95703 13.126C7.95703 13.2445 7.91146 13.3493 7.82031 13.4404L1.44922 19.8115C1.35807 19.9027 1.25326 19.9482 1.13477 19.9482C1.01628 19.9482 0.911458 19.9027 0.820312 19.8115L0.136719 19.1279C0.0455729 19.0368 0 18.932 0 18.8135C0 18.695 0.0455729 18.5902 0.136719 18.499L5.50977 13.126L0.136719 7.75293C0.0455729 7.66178 0 7.55697 0 7.43848C0 7.31999 0.0455729 7.21517 0.136719 7.12402L0.820312 6.44043C0.911458 6.34928 1.01628 6.30371 1.13477 6.30371C1.25326 6.30371 1.35807 6.34928 1.44922 6.44043L7.82031 12.8115ZM13.0703 12.8115C13.1615 12.9027 13.207 13.0075 13.207 13.126C13.207 13.2445 13.1615 13.3493 13.0703 13.4404L6.69922 19.8115C6.60807 19.9027 6.50326 19.9482 6.38477 19.9482C6.26628 19.9482 6.16146 19.9027 6.07031 19.8115L5.38672 19.1279C5.29557 19.0368 5.25 18.932 5.25 18.8135C5.25 18.695 5.29557 18.5902 5.38672 18.499L10.7598 13.126L5.38672 7.75293C5.29557 7.66178 5.25 7.55697 5.25 7.43848C5.25 7.31999 5.29557 7.21517 5.38672 7.12402L6.07031 6.44043C6.16146 6.34928 6.26628 6.30371 6.38477 6.30371C6.50326 6.30371 6.60807 6.34928 6.69922 6.44043L13.0703 12.8115Z" fill="#999999"/>
</svg>
