<svg width="25" height="36" viewBox="0 0 25 36" fill="none" xmlns="http://www.w3.org/2000/svg">
<path fill-rule="evenodd" clip-rule="evenodd" d="M12.1365 0C5.4413 0 0 5.4413 0 12.1365C0 15.6971 2.97636 20.2922 5.87614 24.1633C6.48602 24.9774 7.09018 25.7446 7.67017 26.4626C7.15228 26.6152 6.66482 26.7918 6.22297 26.9953C5.44444 27.3539 4.79162 27.7873 4.30917 28.3127C4.01677 28.6312 3.78781 28.9928 3.65171 29.3832H3.19382C2.84105 29.3832 2.55506 29.6692 2.55506 30.0219C2.55506 30.3747 2.84105 30.6607 3.19382 30.6607H3.5656C3.67281 31.1695 3.94109 31.6397 4.30917 32.0405C4.79162 32.5659 5.44444 32.9994 6.22297 33.358C7.63333 34.0076 9.46727 34.4104 11.4978 34.4808V35.1321C11.4978 35.4848 11.7838 35.7708 12.1365 35.7708C12.4893 35.7708 12.7753 35.4848 12.7753 35.1321V34.4808C14.8058 34.4104 16.6397 34.0076 18.0501 33.358C18.8286 32.9994 19.4815 32.5659 19.9639 32.0405C20.332 31.6397 20.6003 31.1695 20.7075 30.6607H21.0792C21.432 30.6607 21.718 30.3747 21.718 30.0219C21.718 29.6692 21.432 29.3832 21.0792 29.3832H20.6239C20.3315 28.5367 19.5883 27.8319 18.6415 27.2972C18.3342 27.1234 17.9441 27.2318 17.7706 27.5392C17.5968 27.8465 17.7052 28.2365 18.0127 28.4101C18.567 28.723 18.9493 29.0552 19.1866 29.3832H19.163C18.8102 29.3832 18.5242 29.6692 18.5242 30.0219C18.5242 30.3747 18.8102 30.6607 19.163 30.6607H19.3763C19.3023 30.827 19.1869 30.9977 19.0232 31.176C18.6976 31.5306 18.1813 31.8908 17.5149 32.1977C16.3173 32.7494 14.6442 33.1289 12.7753 33.2008C12.7672 32.8539 12.4836 32.5769 12.1365 32.577C11.79 32.5776 11.5072 32.8544 11.499 33.2008C9.62967 33.1291 7.95606 32.7495 6.7582 32.1977C6.09181 31.8908 5.5755 31.5306 5.24987 31.176C5.0862 30.9977 4.97083 30.827 4.8968 30.6607H5.11014C5.46292 30.6607 5.7489 30.3747 5.7489 30.0219C5.7489 29.6692 5.46292 29.3832 5.11014 29.3832H5.08144C5.13107 29.3155 5.18576 29.2471 5.24987 29.1773C5.5755 28.8227 6.09182 28.4625 6.7582 28.1555C7.27672 27.9167 7.88588 27.7119 8.55972 27.548C8.92877 27.9906 9.28593 28.4133 9.61018 28.7893C8.71775 29.133 8.2008 29.6408 8.19792 30.1766C8.19811 31.1785 9.96147 31.9907 12.1365 31.9906C14.3116 31.9907 16.075 31.1785 16.0752 30.1766C16.0755 29.6404 15.5607 29.1316 14.6692 28.7868C17.0995 25.9782 21.054 21.0717 23.0604 16.679C23.2075 16.3579 23.0662 15.9785 22.7448 15.8319C22.4237 15.6848 22.0443 15.8261 21.8977 16.1475C19.2281 21.9921 12.8733 28.8888 12.1266 29.6938C11.5128 29.0317 9.36963 26.6952 6.89918 23.3973C4.05008 19.5938 1.27755 14.926 1.27755 12.1365C1.27755 6.13173 6.13175 1.27753 12.1365 1.27753C18.1414 1.27753 22.9956 6.13173 22.9956 12.1365C22.9956 12.4893 23.2815 12.7753 23.6343 12.7753C23.9871 12.7753 24.2731 12.4893 24.2731 12.1365C24.2731 5.4413 18.8318 0 12.1365 0Z" fill="#E9162F"/>
<path fill-rule="evenodd" clip-rule="evenodd" d="M12.1341 21.0749C10.6537 21.0749 9.25223 20.7144 8.02084 20.0755C7.94633 20.0368 7.88017 19.9838 7.82617 19.9195C7.77217 19.8553 7.73139 19.781 7.70613 19.7009C7.68087 19.6208 7.67165 19.5366 7.67898 19.4529C7.68631 19.3693 7.71006 19.2879 7.74886 19.2135C7.82703 19.0633 7.9616 18.9504 8.123 18.8994C8.28441 18.8484 8.45944 18.8635 8.60968 18.9415C9.66465 19.4888 10.8609 19.7973 12.1341 19.7973C16.375 19.7973 19.7993 16.3731 19.7993 12.1322C19.7993 11.1804 19.626 10.2714 19.3102 9.43238C19.2508 9.27388 19.2567 9.09826 19.3266 8.94411C19.3966 8.78995 19.5248 8.66986 19.6833 8.61022C19.7618 8.58059 19.8455 8.56674 19.9294 8.56945C20.0133 8.57216 20.0958 8.59139 20.1723 8.62604C20.2488 8.66068 20.3177 8.71006 20.3751 8.77135C20.4324 8.83265 20.4771 8.90466 20.5067 8.98325C20.8755 9.96326 21.0768 11.0255 21.0768 12.1322C21.0768 17.0635 17.0654 21.0749 12.1341 21.0749ZM4.70099 16.7832C4.53819 16.7368 4.40044 16.6278 4.31798 16.48C3.60057 15.1929 3.19141 13.7077 3.19141 12.1322C3.19141 7.20083 7.20278 3.18945 12.1341 3.18945C13.6283 3.18945 15.0414 3.55758 16.2811 4.20748C16.4311 4.28609 16.5438 4.42106 16.5944 4.58273C16.6449 4.74439 16.6291 4.91951 16.5506 5.06957C16.5117 5.14402 16.4584 5.21006 16.394 5.26391C16.3295 5.31776 16.255 5.35837 16.1748 5.3834C16.0946 5.40844 16.0103 5.4174 15.9266 5.40979C15.843 5.40218 15.7616 5.37813 15.6872 5.33904C14.6252 4.78223 13.4191 4.46698 12.1341 4.46698C7.89321 4.46698 4.46894 7.89126 4.46894 12.1322C4.46894 13.4871 4.81859 14.7557 5.43334 15.8587C5.51562 16.0066 5.53582 16.1812 5.4895 16.344C5.44318 16.5068 5.33414 16.6446 5.18632 16.727C5.03838 16.8093 4.86381 16.8295 4.70099 16.7832Z" fill="#E9162F"/>
</svg>
