<svg width="80" height="80" viewBox="0 0 80 80" fill="none" xmlns="http://www.w3.org/2000/svg">
<rect width="80" height="80" fill="white"/>
<path d="M40.3065 5.42676C21.0475 5.42676 5.45679 21.0174 5.45679 40.2765C5.45679 59.5356 21.1391 75.1262 40.3065 75.1262C59.5657 75.1262 75.1563 59.5356 75.1563 40.2765C75.1563 21.0174 59.4738 5.42676 40.3065 5.42676ZM73.0657 44.5008L67.0858 42.6608C66.9025 42.5691 66.6273 42.6608 66.5356 42.9361C66.4439 43.1195 66.5356 43.3946 66.8108 43.4862L72.9459 45.3741C72.1101 50.882 69.9156 55.94 66.7154 60.1977L59.0701 51.9285C60.8686 49.0043 62.0029 45.6335 62.2601 42.0297L64.3347 42.6611H64.4265C64.6098 42.6611 64.7933 42.5693 64.885 42.386C64.9767 42.2026 64.885 41.9274 64.6098 41.8356L62.5005 41.1937C62.4418 41.1644 62.3731 41.1559 62.3045 41.1641C62.312 40.9303 62.3171 40.6958 62.3171 40.46C62.3171 37.0078 61.5108 33.7355 60.0785 30.8198L71.086 28.3917C72.5292 32.1039 73.3223 36.1422 73.3223 40.3683C73.3221 41.7498 73.2364 43.1299 73.0657 44.5008ZM40.3065 60.6361C29.2096 60.6361 20.1304 51.5568 20.1304 40.4599C20.1304 29.363 29.1179 20.2837 40.3065 20.2837C51.4035 20.2837 60.4827 29.363 60.4827 40.4599C60.4828 51.5568 51.4035 60.6361 40.3065 60.6361ZM44.1421 7.57509L41.9574 14.5977C41.8657 14.7811 41.9574 15.0563 42.2325 15.148H42.3243C42.5077 15.148 42.6911 15.0563 42.7828 14.8728L45.0179 7.68794C50.615 8.48591 55.7576 10.6823 60.0791 13.9159L57.3646 16.4319C57.1813 16.6153 57.1813 16.8904 57.3646 17.0738C57.4564 17.1655 57.6398 17.2572 57.7315 17.2572C57.8232 17.2572 57.9149 17.1655 58.0066 17.0738L60.8071 14.4782C65.1203 17.8967 68.5583 22.3702 70.7308 27.5124L59.6332 29.9604C57.9179 26.8253 55.4616 24.1473 52.5044 22.1651L54.3382 20.4673C54.5216 20.2839 54.5216 20.0087 54.3382 19.8253C54.1549 19.6419 53.8797 19.6419 53.6963 19.8253L51.7155 21.6591C48.732 19.8373 45.2866 18.7063 41.6062 18.4893L41.8657 17.6241C41.9574 17.4407 41.8657 17.1655 41.5903 17.0738C41.4069 16.9821 41.1319 17.0738 41.0402 17.3489L40.7085 18.4547C40.5749 18.4521 40.4407 18.4495 40.3065 18.4495C36.7081 18.4495 33.3042 19.3248 30.2971 20.8728L27.8212 9.80842C31.6777 8.2266 35.894 7.35269 40.3065 7.35269C41.6043 7.35262 42.8839 7.42989 44.1421 7.57509ZM26.9465 10.1815L29.4428 21.3375C26.3115 23.1286 23.656 25.666 21.7233 28.7034L20.4055 27.2537C20.2221 27.0704 19.947 27.0704 19.7636 27.2537C19.5802 27.4371 19.5802 27.7122 19.7636 27.8958L21.2322 29.5112C19.4862 32.5326 18.4389 36.0017 18.3111 39.6939L7.53466 36.3602C8.95954 24.6247 16.5579 14.7978 26.9465 10.1815ZM10.2696 54.0613L13.8024 53.2993C14.0776 53.2075 14.261 53.024 14.1693 52.749C14.0776 52.4738 13.8941 52.2905 13.619 52.3821L9.88345 53.1878C8.21388 49.2412 7.29103 44.9079 7.29103 40.3682C7.29103 39.3132 7.34278 38.2707 7.43995 37.2413L18.298 40.6003C18.321 44.2544 19.2379 47.704 20.8437 50.7378L16.3703 51.7404C16.0951 51.8321 15.9118 52.0155 16.0035 52.2906C16.0951 52.4741 16.2787 52.6576 16.462 52.6576H16.5537L21.3189 51.5894C23.0855 54.5967 25.5456 57.1511 28.4841 59.0273L20.2812 66.5992C15.9961 63.3185 12.5373 59.0155 10.2696 54.0613ZM40.3065 73.3837C39.146 73.3837 37.9996 73.323 36.8702 73.2059L38.7474 67.1475C38.8392 66.9641 38.7474 66.689 38.4723 66.5973C38.2889 66.5054 38.0138 66.5973 37.922 66.8724L35.9917 73.1022C30.4717 72.3792 25.3829 70.2891 21.0715 67.1869L29.2922 59.5194C32.5277 61.3944 36.2876 62.4702 40.3065 62.4702C43.8621 62.4702 47.2273 61.615 50.2079 60.1013L50.8533 63.1121C50.945 63.2956 51.1283 63.479 51.3118 63.479H51.4035C51.6786 63.3873 51.862 63.2039 51.7703 62.9288L51.0657 59.641C54.0685 57.9451 56.6399 55.5657 58.5629 52.7164L66.1516 60.9246C60.1056 68.5189 50.7808 73.3837 40.3065 73.3837Z" fill="#E94141"/>
<path d="M40.3065 22.1191C30.2183 22.1191 22.0561 30.2813 22.0561 40.3693C22.0561 50.4574 30.2182 58.6196 40.3065 58.6196C50.3945 58.6196 58.5567 50.4574 58.5567 40.3693C58.5567 30.2813 50.3945 22.1191 40.3065 22.1191ZM40.3065 57.7025C30.7686 57.7025 22.9733 49.9072 22.9733 40.3693C22.9733 30.8315 30.6769 23.0362 40.3065 23.0362C49.8442 23.0362 57.6397 30.8316 57.6397 40.3693C57.6397 49.9071 49.8443 57.7025 40.3065 57.7025ZM39.4811 63.5718C39.2977 63.4801 39.0225 63.5718 38.9307 63.847L38.6557 64.7641C38.564 64.9474 38.6557 65.2227 38.9307 65.3143H39.0225C39.2059 65.3143 39.3894 65.2227 39.4811 65.0392L39.7561 64.1221C39.8479 63.9387 39.7561 63.6636 39.4811 63.5718ZM54.98 19.7347C55.1634 19.7347 55.2552 19.7347 55.2552 19.5512L56.1723 18.7258C56.3556 18.5425 56.3556 18.2673 56.1723 18.0839C55.9889 17.9004 55.7137 17.9004 55.5303 18.0839L54.6133 18.9093C54.4299 19.0926 54.4299 19.3678 54.6133 19.5512C54.705 19.6429 54.8884 19.7347 54.98 19.7347ZM15.178 22.8527C15.2696 22.9444 15.4531 23.0362 15.5449 23.0362C15.6365 23.0362 15.7282 23.0362 15.82 22.9444C16.0034 22.7611 16.0034 22.4859 15.82 22.3025L15.2697 21.6605C15.0863 21.4772 14.8112 21.4772 14.6278 21.6605C14.4444 21.844 14.4444 22.1191 14.6278 22.3025L15.178 22.8527ZM17.9292 25.8791C18.0209 25.9708 18.2044 26.0625 18.296 26.0625C18.3877 26.0625 18.4795 26.0625 18.5712 25.8791C18.7546 25.6958 18.7546 25.4206 18.5712 25.2372L17.6541 24.2284C17.4707 24.045 17.1956 24.045 17.0121 24.2284C16.8288 24.4119 16.8288 24.6869 17.0121 24.8704L17.9292 25.8791ZM52.5038 65.9563C52.4121 65.6811 52.2287 65.4978 51.9537 65.5895C51.6786 65.6811 51.4952 65.8646 51.5868 66.1396L51.9537 67.9738C52.0454 68.1573 52.2287 68.3408 52.4122 68.3408H52.5039C52.779 68.249 52.9624 68.0656 52.8707 67.7904L52.5038 65.9563Z" fill="#E94141"/>
<path d="M44.8002 44.8622C45.167 44.4953 45.167 43.945 44.8002 43.5782L44.158 42.9361C44.4824 42.4339 44.7055 41.8731 44.8148 41.2854H45.809C46.3591 41.2854 46.726 40.9185 46.726 40.3683C46.726 39.8181 46.3591 39.4512 45.809 39.4512H44.7723C44.6388 38.8867 44.3968 38.3575 44.0705 37.8882L44.8002 37.1585C45.1671 36.7917 45.1671 36.2414 44.8002 35.8745C44.4332 35.5076 43.8829 35.5076 43.5161 35.8745L42.7684 36.6224C42.301 36.316 41.7788 36.0912 41.2232 35.9721V34.8658C41.2232 34.3156 40.8565 33.9487 40.3063 33.9487C39.756 33.9487 39.3891 34.3156 39.3891 34.8658V35.9721C38.8337 36.0912 38.3116 36.316 37.8442 36.6224L37.0965 35.8746C36.7296 35.5076 36.1793 35.5076 35.8124 35.8746C35.4455 36.2414 35.4455 36.7917 35.8124 37.1586L36.5421 37.8883C36.2157 38.3573 35.974 38.8865 35.8403 39.4513H34.8034C34.2533 39.4513 33.8864 39.8182 33.8864 40.3684C33.8864 40.9186 34.2533 41.2854 34.8034 41.2854H35.7976C35.9068 41.8733 36.13 42.434 36.4545 42.9362L35.8123 43.5782C35.4454 43.9451 35.4454 44.4954 35.8123 44.8622C35.9957 45.0456 36.1792 45.1374 36.4544 45.1374C36.6377 45.1374 36.9128 45.0456 37.0962 44.8622L37.7175 44.241C38.2209 44.5888 38.7895 44.8311 39.389 44.9534V45.8713C39.389 46.4214 39.7558 46.7884 40.3061 46.7884C40.8562 46.7884 41.2232 46.4214 41.2232 45.8713V44.9534C41.8228 44.8312 42.3914 44.5889 42.8948 44.241L43.5158 44.8622C43.6992 45.0456 43.8827 45.1374 44.158 45.1374C44.4332 45.1373 44.7086 45.0456 44.8002 44.8622ZM37.555 40.4601C37.555 38.9927 38.7473 37.7088 40.3064 37.7088C41.8655 37.7088 43.0577 38.9928 43.0577 40.4601C43.0577 41.9275 41.7739 43.2114 40.3064 43.2114C38.8389 43.2114 37.555 41.9275 37.555 40.4601ZM46.9094 28.171H46.6343C46.5426 28.0793 46.4509 28.0793 46.4509 28.0793C46.1758 28.0793 45.9925 28.171 45.809 28.3545L44.892 29.2715C44.5249 29.6383 44.5249 30.1886 44.892 30.5555L50.1192 35.7828C50.3026 35.9664 50.5778 36.058 50.7614 36.058C51.0365 36.058 51.2199 35.9664 51.4034 35.7828L52.3204 34.8658C52.5038 34.6825 52.5954 34.4073 52.5954 34.1322V33.8571C52.2285 30.8307 49.9359 28.5378 46.9094 28.171ZM51.5867 34.1322L50.6697 35.0492L45.4421 29.8217L46.4508 28.9963H46.726C47.9701 29.1279 49.1315 29.6823 50.0161 30.5669C50.9007 31.4516 51.4551 32.6129 51.5867 33.8571V34.1322ZM30.4933 44.8622C30.4016 44.7705 30.1264 44.6788 29.9431 44.6788C29.6679 44.6788 29.4845 44.7705 29.3011 44.9539L28.384 45.871C28.2006 46.0544 28.1088 46.3295 28.1088 46.6047V46.8798C28.4757 49.9062 30.7684 52.1989 33.7948 52.5658H34.1617C34.4368 52.5658 34.6202 52.474 34.8036 52.2907L35.7208 51.3736C36.0876 51.0067 36.0876 50.4565 35.7208 50.0895L30.4933 44.8622ZM34.2534 51.7404H33.9783C32.7342 51.6088 31.5728 51.0545 30.6882 50.1698C29.8036 49.2852 29.2492 48.1238 29.1177 46.8797V46.6046L29.9431 45.5958L35.1705 50.8232L34.2534 51.7404ZM29.3011 35.6912C29.4845 35.8747 29.7597 35.9664 29.9431 35.9664C30.2182 35.9664 30.4017 35.8747 30.585 35.6912L35.8125 30.4638C36.1794 30.097 36.1794 29.5466 35.8125 29.1798L34.8954 28.2628C34.6202 28.171 34.4369 28.0793 34.1617 28.0793H33.7948C30.7684 28.4462 28.4757 30.739 28.1088 33.7654V34.0405C28.1088 34.3156 28.2005 34.5907 28.384 34.7741L29.3011 35.6912ZM28.9343 33.9487C29.0658 32.7046 29.6202 31.5433 30.5048 30.6586C31.3894 29.774 32.5507 29.2196 33.7949 29.088L34.1618 28.9963L35.0788 29.9134L29.8514 35.1409L28.9343 34.2238V33.9487ZM51.2198 45.0456C51.1281 44.7705 50.9447 44.6788 50.6697 44.6788C50.3943 44.6788 50.2109 44.7705 50.0276 44.9539L44.8002 50.1813C44.4331 50.5482 44.4331 51.0984 44.8002 51.4653L45.7173 52.3824C45.9006 52.5658 46.084 52.6575 46.3591 52.6575H46.726C49.7524 52.2907 52.0452 49.998 52.4119 46.9715V46.6964C52.4119 46.4213 52.3202 46.1462 52.1369 45.9628L51.2198 45.0456ZM51.5867 46.7881C51.4551 48.0322 50.9008 49.1936 50.0161 50.0782C49.1315 50.9628 47.9701 51.5172 46.726 51.6486H46.4508L45.5339 50.7316L50.6697 45.5959L51.5867 46.5129V46.7881ZM35.7209 14.1394C36.3628 14.1394 36.9131 13.5892 36.9131 12.9472C36.9131 12.3051 36.3628 11.7549 35.7209 11.7549C35.0788 11.7549 34.5286 12.3051 34.5286 12.9472C34.5286 13.5892 35.0788 14.1394 35.7209 14.1394ZM44.8919 66.7809C44.2498 66.7809 43.6995 67.3311 43.6995 67.973C43.6995 68.6151 44.2498 69.1652 44.8919 69.1652C45.5339 69.1652 46.084 68.6151 46.084 67.973C46.084 67.3311 45.5339 66.7809 44.8919 66.7809ZM49.4773 15.3316C49.6607 15.4233 49.9358 15.515 50.1192 15.515C50.486 15.515 50.9447 15.3316 51.1282 14.873C51.4033 14.3228 51.2199 13.5891 50.6697 13.2222C50.1192 12.9471 49.3856 13.1305 49.0188 13.6807C48.9271 13.9559 48.8354 14.3227 48.9271 14.5978C49.0188 14.873 49.2022 15.1482 49.4773 15.3316ZM31.0436 65.4968C30.4933 65.2218 29.7597 65.4051 29.3928 65.9553C29.1177 66.5055 29.3011 67.2394 29.8514 67.6061C30.0348 67.6978 30.31 67.7895 30.4933 67.7895C30.9518 67.7895 31.3187 67.5144 31.5021 67.1476C31.5938 66.8725 31.6855 66.5055 31.5938 66.2305C31.5022 65.9553 31.3187 65.6802 31.0436 65.4968ZM61.8581 23.9523C62.0414 23.9523 62.2249 23.8606 62.5002 23.7689C62.7754 23.5855 62.9587 23.3104 63.0504 23.0353C63.1422 22.7601 63.1422 22.3932 62.9587 22.1182C62.6836 21.5678 61.8581 21.2928 61.3079 21.6596C61.0327 21.843 60.8494 22.1182 60.7577 22.3933C60.666 22.6685 60.666 23.0353 60.8494 23.3105C61.0327 23.6772 61.3996 23.9523 61.8581 23.9523ZM19.855 57.5181C19.5799 56.9678 18.7545 56.6927 18.2042 57.0595C17.6539 57.4264 17.3788 58.1601 17.7457 58.7104C17.9291 59.0772 18.2959 59.3524 18.7545 59.3524C19.0295 59.3524 19.213 59.3524 19.3964 59.169C19.6715 58.9855 19.8549 58.7105 19.9467 58.4353C20.0384 58.1601 20.0384 57.7933 19.855 57.5181ZM67.8192 34.6824C67.1773 34.6824 66.6271 35.2326 66.6271 35.8747C66.6271 36.5166 67.1773 37.067 67.8192 37.067C68.4613 37.067 69.0115 36.5166 69.0115 35.8747C69.0115 35.2326 68.4613 34.6824 67.8192 34.6824ZM12.7934 43.8533C12.1514 43.8533 11.6011 44.4036 11.6011 45.0456C11.6011 45.6875 12.1514 46.2378 12.7934 46.2378C13.4354 46.2378 13.9857 45.6875 13.9857 45.0456C13.9857 44.4036 13.4354 43.8533 12.7934 43.8533ZM65.343 49.631C65.2513 49.9062 65.1596 50.2729 65.2513 50.5481C65.343 50.8232 65.5267 51.0984 65.8017 51.2818C65.9851 51.3736 66.2602 51.4652 66.4436 51.4652C66.9021 51.4652 67.269 51.1901 67.4525 50.8232C67.5441 50.5481 67.6358 50.1812 67.5441 49.9062C67.4525 49.631 67.2691 49.356 66.994 49.1725C66.4436 48.8975 65.6183 49.0808 65.343 49.631ZM12.9767 30.9223C13.0685 31.1975 13.2519 31.4725 13.5271 31.656C13.7104 31.7477 13.9856 31.8394 14.169 31.8394C14.6275 31.8394 14.9944 31.656 15.1778 31.1974C15.2695 30.9223 15.3612 30.5554 15.2695 30.2803C15.1778 30.0052 14.9944 29.73 14.7192 29.5465C14.169 29.2714 13.4354 29.4549 13.0685 30.0051C12.9767 30.2803 12.8851 30.6472 12.9767 30.9223ZM57.4561 60.9113C56.9059 61.2782 56.6309 62.0118 56.9976 62.5622C57.181 62.929 57.5478 63.2041 58.0064 63.2041C58.2815 63.2041 58.4649 63.1123 58.6484 63.0208C58.9234 62.8374 59.1069 62.5623 59.1985 62.2871C59.2902 62.0119 59.2902 61.645 59.1068 61.3699C58.8316 60.8197 58.0063 60.5445 57.4561 60.9113ZM22.6062 20.1005C22.7897 20.1005 22.9731 20.1005 23.2483 19.9171C23.7985 19.5503 24.0737 18.8166 23.7068 18.2663C23.4316 17.716 22.6062 17.441 22.056 17.8078C21.7808 17.9912 21.5975 18.2663 21.5057 18.5415C21.414 18.8167 21.414 19.1835 21.5974 19.4586C21.7809 19.8254 22.1478 20.1005 22.6062 20.1005Z" fill="#E94141"/>
<circle cx="40" cy="40" r="32.5" stroke="#E94141" stroke-width="3"/>
</svg>
